<svg width="17" height="18" viewBox="0 0 17 18" fill="none" xmlns="http://www.w3.org/2000/svg">
<path d="M1.09512 4.7736C1.74096 5.22288 2.49913 5.4756 3.28537 5.4756C3.84697 5.4756 4.40857 5.36328 4.85785 5.1948C5.41945 5.02632 5.78447 4.85784 6.31799 4.57704C6.40223 4.54896 6.4584 4.54896 6.51456 4.54896C6.68304 4.54896 6.71112 4.68936 6.71112 4.914C6.71112 5.02632 6.71112 5.1948 6.68304 5.36328C6.54264 5.95296 3.6504 14.0119 2.92032 16.6795C2.92032 17.1569 3.84695 17.185 4.07159 17.185C4.52087 17.185 5.08249 17.1288 5.50369 16.7918C5.61601 16.7076 9.57529 2.5272 9.57529 2.5272C9.74377 1.79712 9.94033 1.15128 9.99649 0.95472C9.99649 0.53352 9.5753 0.33696 9.49106 0.30888C9.4349 0.30888 9.29449 0.30888 9.06985 0.44928C8.76097 0.702 6.73919 3.11688 5.41943 3.11688V2.72376C5.41943 1.23552 4.212 0 2.69568 0C1.20744 0 0 1.23552 0 2.72376C0 3.56616 0.477363 4.29624 1.09512 4.7736Z" fill="black"/>
<path d="M16.9965 2.04808C16.9965 1.51765 16.7858 1.00894 16.4107 0.633865C16.0356 0.258793 15.5269 0.0480804 14.9965 0.0480804C14.4661 0.0480804 13.9573 0.258793 13.5823 0.633865C13.2072 1.00894 12.9965 1.51765 12.9965 2.04808H16.9965ZM12.9965 2.04808C12.9965 2.57851 13.2072 3.08722 13.5823 3.4623C13.9573 3.83737 14.4661 4.04808 14.9965 4.04808C15.5269 4.04808 16.0356 3.83737 16.4107 3.4623C16.7858 3.08722 16.9965 2.57851 16.9965 2.04808" fill="black"/>
</svg>
