<svg width="19" height="43" viewBox="0 0 19 43" fill="none" xmlns="http://www.w3.org/2000/svg">
<path d="M0.75 7.0544V40.0544" stroke="black" stroke-width="1.5"/>
<path d="M0 6.7392C0 8.8452 1.74094 10.1088 3.93118 10.1088C7.52542 10.1088 11.934 6.79536 11.934 3.3696C11.934 1.29168 10.3053 0 8.00278 0C3.56614 0 0 3.28536 0 6.7392Z" fill="black"/>
<path d="M0.44928 42.616C1.20744 42.616 1.54439 42.3914 1.62863 41.7174C2.30255 37.8986 5.30712 34.3605 7.35696 31.1874C9.91224 27.172 12.3833 22.3703 12.3833 17.3159C12.3833 14.1429 11.5689 11.2787 11.232 9.98704C11.1196 9.53776 10.867 9.36928 10.5862 9.36928C9.99647 9.36928 9.29447 10.1555 9.71567 11.3349C10.2773 13.0197 10.5581 15.0414 10.5581 16.8666C10.5581 19.2534 9.5472 22.6511 8.92944 24.027C7.4412 27.4247 5.41944 30.682 0 32.5072V42.0263C0 42.5037 0.19656 42.616 0.44928 42.616Z" fill="black"/>
<path d="M18.934 5.0544C18.934 4.52396 18.7232 4.01526 18.3482 3.64018C17.9731 3.26511 17.4644 3.0544 16.934 3.0544C16.4036 3.0544 15.8949 3.26511 15.5198 3.64018C15.1447 4.01526 14.934 4.52396 14.934 5.0544H18.934ZM14.934 5.0544C14.934 5.58483 15.1447 6.09354 15.5198 6.46861C15.8949 6.84369 16.4036 7.0544 16.934 7.0544C17.4644 7.0544 17.9731 6.84369 18.3482 6.46861C18.7232 6.09354 18.934 5.58483 18.934 5.0544" fill="black"/>
</svg>
