<svg width="19" height="41" viewBox="0 0 19 41" fill="none" xmlns="http://www.w3.org/2000/svg">
<path d="M0.75 7.0544V40.0544" stroke="black" stroke-width="1.5"/>
<path d="M0 6.7392C0 8.8452 1.74096 10.1088 3.9312 10.1088C7.52544 10.1088 11.934 6.79536 11.934 3.3696C11.934 1.29168 10.3054 0 8.0028 0C3.56616 0 0 3.28536 0 6.7392Z" fill="black"/>
<path d="M18.934 5.0544C18.934 4.52396 18.7233 4.01526 18.3482 3.64018C17.9731 3.26511 17.4644 3.0544 16.934 3.0544C16.4036 3.0544 15.8948 3.26511 15.5198 3.64018C15.1447 4.01526 14.934 4.52396 14.934 5.0544H18.934ZM14.934 5.0544C14.934 5.58483 15.1447 6.09354 15.5198 6.46861C15.8948 6.84369 16.4036 7.0544 16.934 7.0544C17.4644 7.0544 17.9731 6.84369 18.3482 6.46861C18.7233 6.09354 18.934 5.58483 18.934 5.0544" fill="black"/>
</svg>
