<svg width="19" height="43" viewBox="0 0 19 43" fill="none" xmlns="http://www.w3.org/2000/svg">
<path d="M0.75 7.0544V40.0544" stroke="black" stroke-width="1.5"/>
<path d="M0 6.7392C0 8.8452 1.74097 10.1088 3.93121 10.1088C7.52545 10.1088 11.934 6.79536 11.934 3.3696C11.934 1.29168 10.3054 0 8.00281 0C3.56617 0 0 3.28536 0 6.7392Z" fill="black"/>
<path d="M0 42.3914C0 42.3914 0.44931 42.4194 0.67395 42.4194C0.92667 42.4194 1.40398 42.3352 1.48822 41.8859C2.47102 35.6522 10.4458 33.9393 11.4005 27.5651C11.4848 27.1439 11.5128 26.6385 11.5128 26.133C11.5128 23.662 10.6424 21.219 10.502 20.9944C10.4739 20.9102 10.4738 20.8259 10.4738 20.7136C10.4738 20.5451 10.502 20.4609 10.502 20.3486C11.9621 17.3159 12.0182 13.3566 11.3724 10.0994C11.1477 9.17272 10.8669 9.22888 10.3896 9.22888C9.91223 9.25696 9.5753 9.59392 9.7157 10.2678C10.3054 13.6655 10.3054 17.344 8.76099 20.489C5.98107 26.1611 2.69565 26.2734 0.196533 26.3577H0V42.3914ZM1.62866 33.153C1.62866 33.125 1.62866 33.0688 1.65674 33.0407C2.49914 29.7273 4.7736 28.8006 6.68304 26.5542C7.52544 25.6276 8.19937 24.8414 8.84521 23.7743C8.92945 23.662 9.01366 23.6058 9.12598 23.6058C9.35062 23.6058 9.63147 23.7462 9.65955 23.8866C9.85611 24.1955 9.85607 24.5886 9.94031 24.8975C9.99647 25.2064 9.99646 25.4872 9.99646 25.7118C9.99646 27.0597 9.63145 28.2671 8.90137 29.3061C7.55353 31.2998 4.97019 33.5742 2.49915 33.5742H2.19025C1.85329 33.5742 1.62866 33.3496 1.62866 33.153Z" fill="black"/>
<path d="M18.934 5.0544C18.934 4.52396 18.7233 4.01526 18.3482 3.64018C17.9731 3.26511 17.4645 3.0544 16.934 3.0544C16.4036 3.0544 15.8948 3.26511 15.5198 3.64018C15.1447 4.01526 14.934 4.52396 14.934 5.0544H18.934ZM14.934 5.0544C14.934 5.58483 15.1447 6.09354 15.5198 6.46861C15.8948 6.84369 16.4036 7.0544 16.934 7.0544C17.4645 7.0544 17.9731 6.84369 18.3482 6.46861C18.7233 6.09354 18.934 5.58483 18.934 5.0544" fill="black"/>
</svg>
