<svg width="10" height="18" viewBox="0 0 10 18" fill="none" xmlns="http://www.w3.org/2000/svg">
<path d="M1.09512 4.7736C1.74096 5.22288 2.49911 5.4756 3.28535 5.4756C3.84695 5.4756 4.40856 5.36328 4.85784 5.1948C5.41944 5.02632 5.78448 4.85784 6.318 4.57704C6.40224 4.54896 6.4584 4.54896 6.51456 4.54896C6.68304 4.54896 6.71112 4.68936 6.71112 4.914C6.71112 5.02632 6.71112 5.1948 6.68304 5.36328C6.54264 5.95296 3.6504 14.0119 2.92032 16.6795C2.92032 17.1569 3.84695 17.185 4.07159 17.185C4.52087 17.185 5.08248 17.1288 5.50368 16.7918C5.616 16.7076 9.57528 2.5272 9.57528 2.5272C9.74376 1.79712 9.94032 1.15128 9.99648 0.95472C9.99648 0.53352 9.57528 0.33696 9.49104 0.30888C9.43488 0.30888 9.29448 0.30888 9.06984 0.44928C8.76096 0.702 6.7392 3.11688 5.41944 3.11688V2.72376C5.41944 1.23552 4.212 0 2.69568 0C1.20744 0 0 1.23552 0 2.72376C0 3.56616 0.477356 4.29624 1.09512 4.7736Z" fill="black"/>
</svg>
