<svg width="215" height="107" viewBox="0 0 215 107" fill="none" xmlns="http://www.w3.org/2000/svg">
<path d="M46.864 0.919998L38.8 47H27.216L19.152 21.784L14.8 47H3.216L11.344 0.919998H23.248L31.184 24.472L35.344 0.919998H46.864ZM72.737 0.471996C83.0197 0.471996 88.161 4.67466 88.161 13.08C88.161 14.488 88.0117 16.0027 87.713 17.624L85.473 30.424C84.449 36.3547 82.2303 40.7493 78.817 43.608C75.4037 46.4667 70.6037 47.896 64.417 47.896C58.2303 47.896 53.921 46.4667 51.489 43.608C49.825 41.6453 48.993 38.936 48.993 35.48C48.993 33.944 49.1637 32.2587 49.505 30.424L51.745 17.624C53.7503 6.18933 60.7477 0.471996 72.737 0.471996ZM66.145 37.976C68.2783 37.976 69.985 37.4213 71.265 36.312C72.545 35.2027 73.441 33.1547 73.953 30.168L76.129 17.88C76.257 17.0267 76.321 16.2587 76.321 15.576C76.321 12.12 74.5717 10.392 71.073 10.392C66.6783 10.4773 64.0543 12.9733 63.201 17.88L61.025 30.168C60.8543 31.2347 60.769 32.344 60.769 33.496C60.769 36.4827 62.561 37.976 66.145 37.976ZM135.661 10.904H119.917L113.581 47H101.997L108.333 10.904H92.5245L94.3165 0.919998H137.453L135.661 10.904ZM166.719 47H134.591L142.719 0.919998H174.847L173.055 10.904H152.447L150.975 19.544H167.999L166.207 29.528H149.183L147.903 37.016H168.511L166.719 47ZM26 100L26.384 89.952H15.696L12.56 100H0.336L16.784 53.92H37.904L38.16 100H26ZM23.376 65.12L18.32 81.376H26.704L27.408 65.12H23.376ZM70.264 53.92C75.8533 53.92 79.8427 55.328 82.232 58.144C83.9813 60.2773 84.856 62.944 84.856 66.144C84.856 67.296 84.7493 68.512 84.536 69.792L82.04 84.064C81.1867 88.8853 79.096 92.7467 75.768 95.648C72.44 98.5493 68.1307 100 62.84 100H44.216L52.344 53.92H70.264ZM66.232 63.904H62.072L57.528 90.016H63.608C65.6133 90.016 67.1707 89.4827 68.28 88.416C69.432 87.3067 70.2213 85.5147 70.648 83.04L72.504 72.544C72.6747 71.6053 72.76 70.752 72.76 69.984C72.76 65.9307 70.584 63.904 66.232 63.904ZM113.077 53.92C118.666 53.92 122.655 55.328 125.045 58.144C126.794 60.2773 127.669 62.944 127.669 66.144C127.669 67.296 127.562 68.512 127.349 69.792L124.853 84.064C123.999 88.8853 121.909 92.7467 118.581 95.648C115.253 98.5493 110.943 100 105.653 100H87.0285L95.1565 53.92H113.077ZM109.045 63.904H104.885L100.341 90.016H106.421C108.426 90.016 109.983 89.4827 111.093 88.416C112.245 87.3067 113.034 85.5147 113.461 83.04L115.317 72.544C115.487 71.6053 115.573 70.752 115.573 69.984C115.573 65.9307 113.397 63.904 109.045 63.904ZM161.969 100H129.841L137.969 53.92H170.097L168.305 63.904H147.697L146.225 72.544H163.249L161.457 82.528H144.433L143.153 90.016H163.761L161.969 100ZM196.029 53.92C200.893 53.92 204.349 54.9867 206.397 57.12C207.933 58.7413 208.701 60.7893 208.701 63.264C208.701 64.1173 208.616 65.0133 208.445 65.952L207.549 70.944C207.037 73.7173 206.141 75.9573 204.861 77.664C203.624 79.3707 202.237 80.5867 200.701 81.312L206.525 100H193.597L188.221 82.784H184.253L181.629 100H169.341L177.469 53.92H196.029ZM191.997 63.904H187.197L185.533 75.04H190.013C192.274 75.04 193.896 74.5067 194.877 73.44C195.858 72.3307 196.349 70.88 196.349 69.088C196.349 65.632 194.898 63.904 191.997 63.904Z" fill="#000004"/>
<path d="M183.719 8.5H213.9L212.339 17.1949H182.185L183.719 8.5Z" fill="#E9806E" stroke="#000004"/>
<path d="M181.13 31.8051L192.644 31.8051L191.084 40.5L179.596 40.5L181.13 31.8051Z" fill="#87BCDE" stroke="#000004"/>
<path d="M182.424 20.1525H204.095L202.534 28.8475H180.891L182.424 20.1525Z" fill="#FFD43B" stroke="#000004"/>
</svg>
