<svg width="12" height="43" viewBox="0 0 12 43" fill="none" xmlns="http://www.w3.org/2000/svg">
<path d="M0.75 7.05441V40.0544" stroke="black" stroke-width="1.5"/>
<path d="M0 6.7392C0 8.8452 1.74096 10.1088 3.9312 10.1088C7.52544 10.1088 11.934 6.79536 11.934 3.3696C11.934 1.29168 10.3054 0 8.0028 0C3.56616 0 0 3.28536 0 6.7392Z" fill="black"/>
<path d="M0 42.3913C0 42.3913 0.44928 42.4194 0.67392 42.4194C0.92664 42.4194 1.404 42.3352 1.48824 41.8859C2.47104 35.6521 10.4458 33.9393 11.4005 27.5651C11.4847 27.1439 11.5128 26.6385 11.5128 26.133C11.5128 23.662 10.6423 21.219 10.5019 20.9944C10.4738 20.9101 10.4738 20.8259 10.4738 20.7136C10.4738 20.5451 10.5019 20.4609 10.5019 20.3485C11.9621 17.3159 12.0182 13.3566 11.3724 10.0993C11.1478 9.17271 10.867 9.22887 10.3896 9.22887C9.91224 9.25695 9.57528 9.59391 9.71568 10.2678C10.3054 13.6655 10.3054 17.344 8.76096 20.4889C5.98104 26.1611 2.69568 26.2734 0.196556 26.3577H0V42.3913ZM1.62864 33.153C1.62864 33.1249 1.62864 33.0688 1.65672 33.0407C2.49912 29.7273 4.7736 28.8006 6.68304 26.5542C7.52544 25.6276 8.19936 24.8413 8.8452 23.7743C8.92944 23.662 9.01368 23.6058 9.126 23.6058C9.35064 23.6058 9.63144 23.7462 9.65952 23.8866C9.85608 24.1955 9.85608 24.5886 9.94032 24.8975C9.99648 25.2064 9.99648 25.4872 9.99648 25.7118C9.99648 27.0597 9.63144 28.2671 8.90136 29.3061C7.55352 31.2997 4.97016 33.5742 2.49911 33.5742H2.19024C1.85328 33.5742 1.62864 33.3496 1.62864 33.153Z" fill="black"/>
</svg>
