<svg width="20" height="28" viewBox="0 0 20 28" fill="none" xmlns="http://www.w3.org/2000/svg">
<path d="M3.22919 15.6967C4.29623 15.6967 5.3352 15.3317 6.26184 14.8543C6.34608 14.8543 6.43036 14.9386 6.43036 15.0509C6.43036 15.079 6.40222 15.1351 6.40222 15.1632L2.5553 26.6198C2.5553 26.6479 2.49915 26.7041 2.49915 26.7322C2.49915 27.0691 2.8642 27.4622 3.76276 27.4622C4.94212 27.4622 5.13865 26.9849 5.30713 26.5356L9.99646 11.1197C11.0354 7.69392 11.7936 4.97016 11.7936 4.97016C11.7936 4.97016 12.8045 1.43208 12.8887 0.89856C12.8887 0.81432 12.9449 0.78624 12.9449 0.73008C12.9449 0.50544 12.6079 0.33696 12.5237 0.2808C12.3271 0.2808 12.2148 0.36504 12.1025 0.44928C11.7936 0.702 9.77185 3.11688 8.42401 3.17304V2.75184C8.42401 1.20744 7.1885 0 5.67218 0C4.15586 0 2.92035 1.20744 2.92035 2.75184C2.92035 4.40856 4.60514 5.50368 6.14954 5.50368C7.24466 5.50368 8.36785 5.13864 9.29449 4.60512C9.43489 4.57704 9.49108 4.54896 9.57532 4.54896C9.71572 4.54896 9.77185 4.60512 9.77185 4.82976C9.77185 5.4756 7.72202 11.4847 7.44122 12.1025C7.10426 12.8606 6.03719 13.338 5.44751 13.338C5.50367 13.1976 5.50366 13.0572 5.50366 12.9449C5.50366 11.4005 4.24007 10.193 2.75183 10.193C1.20743 10.193 0 11.4005 0 12.9449C0 14.6016 1.68479 15.6967 3.22919 15.6967Z" fill="black"/>
<path d="M19.9449 2.24464C19.9449 1.71421 19.7342 1.2055 19.3591 0.830429C18.9841 0.455356 18.4753 0.244644 17.9449 0.244644C17.4145 0.244644 16.9058 0.455356 16.5307 0.830429C16.1556 1.2055 15.9449 1.71421 15.9449 2.24464H19.9449ZM15.9449 2.24464C15.9449 2.77508 16.1556 3.28379 16.5307 3.65886C16.9058 4.03393 17.4145 4.24464 17.9449 4.24464C18.4753 4.24464 18.9841 4.03393 19.3591 3.65886C19.7342 3.28379 19.9449 2.77508 19.9449 2.24464" fill="black"/>
</svg>
