<svg width="13" height="43" viewBox="0 0 13 43" fill="none" xmlns="http://www.w3.org/2000/svg">
<path d="M0.75 7.0544V40.0544" stroke="black" stroke-width="1.5"/>
<path d="M0 6.7392C0 8.8452 1.74096 10.1088 3.9312 10.1088C7.52544 10.1088 11.934 6.79536 11.934 3.3696C11.934 1.29168 10.3054 0 8.0028 0C3.56616 0 0 3.28536 0 6.7392Z" fill="black"/>
<path d="M0.44928 42.616C1.20744 42.616 1.5444 42.3914 1.62864 41.7174C2.30256 37.8986 5.30712 34.3605 7.35696 31.1874C9.91224 27.172 12.3833 22.3703 12.3833 17.3159C12.3833 14.1429 11.569 11.2787 11.232 9.98704C11.1197 9.53776 10.867 9.36928 10.5862 9.36928C9.99648 9.36928 9.29448 10.1555 9.71568 11.3349C10.2773 13.0197 10.5581 15.0414 10.5581 16.8666C10.5581 19.2534 9.5472 22.6511 8.92944 24.027C7.4412 27.4247 5.41944 30.682 0 32.5072V42.0263C0 42.5037 0.19656 42.616 0.44928 42.616Z" fill="black"/>
</svg>
