<svg width="10" height="28" viewBox="0 0 10 28" fill="none" xmlns="http://www.w3.org/2000/svg">
<path d="M4.2084 26.8128C4.5108 27.0396 4.8636 27.1404 5.166 27.1404C5.418 27.1404 5.67 27.0648 5.7204 26.9136C5.7456 26.8128 5.7708 26.7372 5.7708 26.6616C5.7708 26.334 5.4936 26.0568 5.1912 25.8048C4.7376 25.8048 4.3344 24.822 4.2588 24.4944C4.158 24.192 4.1076 23.8644 4.1076 23.5368C4.1076 22.05 4.8636 20.8908 6.40079 20.8908C7.4592 20.8908 8.6436 21.294 9.2232 21.5208C9.2736 21.5208 9.2988 21.546 9.3492 21.546C9.45 21.5964 9.5256 21.5964 9.6012 21.5964C9.702 21.5964 9.7776 21.546 9.7776 21.4452C9.7776 21.0168 8.82 19.8072 8.442 19.3788C7.056 17.7156 5.922 16.3548 5.922 14.3388C5.922 14.1876 5.9724 14.0112 5.9724 13.86C6.0984 11.7432 7.4088 10.0044 8.3664 8.5176C8.4672 8.3412 8.4924 8.1648 8.4924 7.9884C8.4924 7.6104 8.3664 7.2828 8.3664 7.2828C8.3664 7.2828 2.9988 0.907199 2.3688 0.277199C2.1924 0.100799 1.9404 0 1.7136 0C1.3608 0 0.982796 0.251997 0.982796 0.755997C0.982796 0.932397 1.0332 1.134 1.134 1.3356C1.2852 1.7388 3.3516 3.5784 3.3516 6.1992C3.3516 7.5348 2.79719 9.0972 1.18439 10.8108C0.806395 11.1636 0.655197 11.5668 0.655197 11.8692C0.655197 12.3732 1.0332 12.726 1.0332 12.726L2.7972 14.9184C3.3768 15.6492 3.906 16.3296 4.3596 17.0856C4.4352 17.2368 4.5864 17.514 4.5864 17.5896C4.5864 17.64 4.5864 17.7156 4.536 17.7408C4.4856 17.892 4.3344 17.9172 4.158 17.9172C4.0068 17.9172 3.7044 17.8416 3.5784 17.8164C3.3768 17.8164 3.17519 17.7156 2.99879 17.7156C1.43639 17.7156 0 19.278 0 21.1932C0 23.0076 1.5624 24.7716 4.2084 26.8128Z" fill="black"/>
</svg>
