<svg width="13" height="28" viewBox="0 0 13 28" fill="none" xmlns="http://www.w3.org/2000/svg">
<path d="M3.22919 15.6967C4.29623 15.6967 5.3352 15.3317 6.26184 14.8543C6.34608 14.8543 6.43032 14.9386 6.43032 15.0509C6.43032 15.079 6.40224 15.1351 6.40224 15.1632L2.55527 26.6198C2.55527 26.6479 2.49911 26.7041 2.49911 26.7322C2.49911 27.0691 2.86416 27.4622 3.76272 27.4622C4.94208 27.4622 5.13864 26.9849 5.30712 26.5356L9.99648 11.1197C11.0354 7.69392 11.7936 4.97016 11.7936 4.97016C11.7936 4.97016 12.8045 1.43208 12.8887 0.89856C12.8887 0.81432 12.9449 0.78624 12.9449 0.73008C12.9449 0.50544 12.6079 0.33696 12.5237 0.2808C12.3271 0.2808 12.2148 0.36504 12.1025 0.44928C11.7936 0.702 9.77184 3.11688 8.424 3.17304V2.75184C8.424 1.20744 7.18848 0 5.67216 0C4.15584 0 2.92032 1.20744 2.92032 2.75184C2.92032 4.40856 4.60512 5.50368 6.14952 5.50368C7.24464 5.50368 8.36784 5.13864 9.29448 4.60512C9.43488 4.57704 9.49104 4.54896 9.57528 4.54896C9.71568 4.54896 9.77184 4.60512 9.77184 4.82976C9.77184 5.4756 7.722 11.4847 7.4412 12.1025C7.10424 12.8606 6.0372 13.338 5.44752 13.338C5.50368 13.1976 5.50368 13.0572 5.50368 12.9449C5.50368 11.4005 4.24008 10.193 2.75184 10.193C1.20744 10.193 0 11.4005 0 12.9449C0 14.6016 1.68479 15.6967 3.22919 15.6967Z" fill="black"/>
</svg>
